<svg xmlns="http://www.w3.org/2000/svg" xmlns:xlink="http://www.w3.org/1999/xlink" width="96" height="96" viewBox="0 0 96 96">
  <defs>
    <clipPath id="clip-path">
      <rect id="Rectangle_13155" data-name="Rectangle 13155" width="96" height="96" transform="translate(5768.347 5333)" fill="#fff" stroke="#707070" stroke-width="1"/>
    </clipPath>
    <clipPath id="clip-path-2">
      <rect id="Rectangle_13154" data-name="Rectangle 13154" width="64.02" height="58.998" fill="#047e63"/>
    </clipPath>
  </defs>
  <g id="ic_nkhra" transform="translate(-5768.347 -5333)" clip-path="url(#clip-path)">
    <g id="Group_34878" data-name="Group 34878" transform="translate(5784.347 5352)">
      <g id="Group_34878-2" data-name="Group 34878" clip-path="url(#clip-path-2)">
        <path id="Path_68890" data-name="Path 68890" d="M50.827,30.156a1.049,1.049,0,0,0-1-.738H44a1.049,1.049,0,0,0-1,.742L36.033,52.925a1.048,1.048,0,0,0,1,1.356h3.615a1.049,1.049,0,0,0,1.01-.768L43.222,47.9h7.123l1.69,5.637a1.049,1.049,0,0,0,1,.747h3.842a1.047,1.047,0,0,0,1-1.359ZM44.029,43.7l2.624-10.071h.071L49.529,43.7ZM33.156,56.471a.642.642,0,0,1-.334.867,21.416,21.416,0,0,1-8.3,1.66h0A21.579,21.579,0,0,1,13.2,55.8,21.319,21.319,0,0,1,3,39.138l-.045-.578L.493,37.976a.66.66,0,0,1-.466-.438.643.643,0,0,1,.149-.626l7.337-7.776a.637.637,0,0,1,.54-.2l.028,0a.446.446,0,0,1,.052.01.666.666,0,0,1,.46.438l3.068,10.241a.638.638,0,0,1-.626.823H10.99a.586.586,0,0,1-.092-.014l-2.392-.567L8.8,41.124A16.093,16.093,0,0,0,30.548,52.395a.663.663,0,0,1,.576.049.637.637,0,0,1,.243.273Zm30.688-31.58-7.337,7.776a.637.637,0,0,1-.54.2l-.028,0a.386.386,0,0,1-.052-.01.662.662,0,0,1-.459-.438L52.36,22.17a.639.639,0,0,1,.625-.824h.045a.653.653,0,0,1,.092.014l2.392.567-.291-1.248A16.093,16.093,0,0,0,33.472,9.409.662.662,0,0,1,32.9,9.36a.632.632,0,0,1-.243-.273l-1.79-3.756a.641.641,0,0,1,.334-.867A21.416,21.416,0,0,1,39.5,2.8h0A21.579,21.579,0,0,1,50.822,6,21.319,21.319,0,0,1,61.016,22.664l.045.578,2.465.584a.655.655,0,0,1,.467.439.643.643,0,0,1-.149.626m-52.793,2.76a11.756,11.756,0,0,1-.669-3.972A12.812,12.812,0,0,1,10.75,20.6a13.937,13.937,0,0,1,2.441-5.135,10.933,10.933,0,0,1,1.705-1.8,8.537,8.537,0,0,1-1.589-1.027,8.032,8.032,0,0,1-1.279-1.3,6.238,6.238,0,0,1-.862-1.483,4.2,4.2,0,0,1-.32-1.6,8.012,8.012,0,0,1,.542-2.81,9.911,9.911,0,0,1,1.492-2.664,8.4,8.4,0,0,1,2.228-2A5.2,5.2,0,0,1,17.881,0a6.2,6.2,0,0,1,1.6.194,6.593,6.593,0,0,1,1.356.523,8.571,8.571,0,0,1,1.182.746q.552.417,1.056.843a1.7,1.7,0,0,1,.5.65,3.192,3.192,0,0,1,.136,1.095q0,.93-.484.93a1.265,1.265,0,0,1-.533-.2q-.359-.2-.853-.446a9.521,9.521,0,0,0-1.085-.446,3.76,3.76,0,0,0-1.23-.2,6.307,6.307,0,0,0-1.734.252,9.442,9.442,0,0,0-1.666.649,7.838,7.838,0,0,0-1.385.882,4.409,4.409,0,0,0-.911.949,1.4,1.4,0,0,0,.281.794A4.3,4.3,0,0,0,14.839,8a8.46,8.46,0,0,0,.988.737,9.41,9.41,0,0,0,1.075.6,9.81,9.81,0,0,0,.979.407A2.293,2.293,0,0,0,18.6,9.9a2.635,2.635,0,0,0,1.2-.329q.639-.329,1.375-.639L25.9,7.015q.542-.213.736-.048a.868.868,0,0,1,.194.669,5.376,5.376,0,0,1-.155,1.085,10.417,10.417,0,0,1-.417,1.4,8.557,8.557,0,0,1-.591,1.269,1.526,1.526,0,0,1-.678.707A35.889,35.889,0,0,0,20.1,14.213a20.231,20.231,0,0,0-3.662,2.441,10.119,10.119,0,0,0-2.3,2.713,5.914,5.914,0,0,0-.795,2.916A5.443,5.443,0,0,0,16.3,27.206Q19.256,28.95,25.05,29.3q1.375.1,2.606.1t2.19-.048q.959-.049,1.589-.1t.843-.048a.306.306,0,0,1,.3.184,1.673,1.673,0,0,1,.087.649,2.607,2.607,0,0,1-.1.872.528.528,0,0,1-.31.31q-.872.426-2.016.92t-2.335.91q-1.192.417-2.325.7a8.423,8.423,0,0,1-1.987.281,20.285,20.285,0,0,1-6.259-.833,11.03,11.03,0,0,1-4.079-2.248,8.122,8.122,0,0,1-2.209-3.294" transform="translate(0)" fill="#047e63"/>
      </g>
    </g>
  </g>
</svg>
